<?xml version="1.0" standalone="no"?><svg xmlns="http://www.w3.org/2000/svg" viewBox="0 0 1440 320"><path fill="#5000ca" fill-opacity="1" d="M0,32L34.3,32C68.6,32,137,32,206,69.3C274.3,107,343,181,411,224C480,267,549,277,617,277.3C685.7,277,754,267,823,245.3C891.4,224,960,192,1029,165.3C1097.1,139,1166,117,1234,128C1302.9,139,1371,181,1406,202.7L1440,224L1440,320L1405.7,320C1371.4,320,1303,320,1234,320C1165.7,320,1097,320,1029,320C960,320,891,320,823,320C754.3,320,686,320,617,320C548.6,320,480,320,411,320C342.9,320,274,320,206,320C137.1,320,69,320,34,320L0,320Z"></path></svg>